<svg width="18" height="22" viewBox="0 0 18 22" fill="none" xmlns="http://www.w3.org/2000/svg">
<path id="Vector " fill-rule="evenodd" clip-rule="evenodd" d="M3.5 1.75C3.03587 1.75 2.59075 1.93437 2.26256 2.26256C1.93437 2.59075 1.75 3.03587 1.75 3.5V15.7614C2.26855 15.43 2.87499 15.25 3.5 15.25H16.25V1.75H3.5ZM17.75 1C17.75 0.585786 17.4142 0.25 17 0.25H3.5C2.63805 0.25 1.8114 0.59241 1.2019 1.2019C0.59241 1.8114 0.25 2.63805 0.25 3.5V18.5C0.25 19.362 0.59241 20.1886 1.2019 20.7981C1.8114 21.4076 2.63805 21.75 3.5 21.75H17C17.4142 21.75 17.75 21.4142 17.75 21V1ZM16.25 16.75H3.5C3.03587 16.75 2.59075 16.9344 2.26256 17.2626C1.93437 17.5908 1.75 18.0359 1.75 18.5C1.75 18.9641 1.93437 19.4092 2.26256 19.7374C2.59075 20.0656 3.03587 20.25 3.5 20.25H16.25V16.75Z" fill="white"/>
</svg>
