<svg width="22" height="22" viewBox="0 0 22 22" fill="none" xmlns="http://www.w3.org/2000/svg">
<g id="book-open">
<path id="Vector " fill-rule="evenodd" clip-rule="evenodd" d="M1.14587 2.75C1.14587 2.3703 1.45368 2.0625 1.83337 2.0625H7.33337C8.48817 2.0625 9.59567 2.52124 10.4122 3.33781C10.6356 3.56121 10.8323 3.8064 11 4.06837C11.1678 3.8064 11.3644 3.56121 11.5878 3.33781C12.4044 2.52124 13.5119 2.0625 14.6667 2.0625H20.1667C20.5464 2.0625 20.8542 2.3703 20.8542 2.75V16.5C20.8542 16.8797 20.5464 17.1875 20.1667 17.1875H13.75C13.203 17.1875 12.6784 17.4048 12.2916 17.7916C11.9048 18.1784 11.6875 18.703 11.6875 19.25C11.6875 19.6297 11.3797 19.9375 11 19.9375C10.6203 19.9375 10.3125 19.6297 10.3125 19.25C10.3125 18.703 10.0952 18.1784 9.70845 17.7916C9.32166 17.4048 8.79705 17.1875 8.25004 17.1875H1.83337C1.45368 17.1875 1.14587 16.8797 1.14587 16.5V2.75ZM10.3125 16.5C9.72102 16.0563 8.9981 15.8125 8.25004 15.8125H2.52087V3.4375H7.33337C8.1235 3.4375 8.88126 3.75138 9.43996 4.31008C9.99866 4.86878 10.3125 5.62654 10.3125 6.41667V16.5ZM11.6875 16.5C12.2791 16.0563 13.002 15.8125 13.75 15.8125H19.4792V3.4375H14.6667C13.8766 3.4375 13.1188 3.75138 12.5601 4.31008C12.0014 4.86877 11.6875 5.62654 11.6875 6.41667V16.5Z" fill="white"/>
</g>
</svg>
