<svg width="24" height="24" viewBox="0 0 24 24" fill="none" xmlns="http://www.w3.org/2000/svg">
<g id="book">
<path id="Vector " fill-rule="evenodd" clip-rule="evenodd" d="M6.5 2.75002C6.03587 2.75002 5.59075 2.93439 5.26256 3.26258C4.93437 3.59077 4.75 4.03589 4.75 4.50002V16.7614C5.26855 16.43 5.87499 16.25 6.5 16.25H19.25V2.75002H6.5ZM20.75 2.00002C20.75 1.5858 20.4142 1.25002 20 1.25002H6.5C5.63805 1.25002 4.8114 1.59242 4.2019 2.20192C3.59241 2.81141 3.25 3.63806 3.25 4.50002V19.5C3.25 20.362 3.59241 21.1886 4.2019 21.7981C4.8114 22.4076 5.63805 22.75 6.5 22.75H20C20.4142 22.75 20.75 22.4142 20.75 22V2.00002ZM19.25 17.75H6.5C6.03587 17.75 5.59075 17.9344 5.26256 18.2626C4.93437 18.5908 4.75 19.0359 4.75 19.5C4.75 19.9641 4.93437 20.4093 5.26256 20.7375C5.59075 21.0656 6.03587 21.25 6.5 21.25H19.25V17.75Z" fill="#DB3832"/>
</g>
</svg>
