<svg width="28" height="28" viewBox="0 0 28 28" fill="none" xmlns="http://www.w3.org/2000/svg">
<g id="plus-circle">
<path id="Vector " fill-rule="evenodd" clip-rule="evenodd" d="M14 3.20834C8.03997 3.20834 3.20837 8.03994 3.20837 14C3.20837 19.9601 8.03997 24.7917 14 24.7917C19.9601 24.7917 24.7917 19.9601 24.7917 14C24.7917 8.03994 19.9601 3.20834 14 3.20834ZM1.45837 14C1.45837 7.07344 7.07347 1.45834 14 1.45834C20.9266 1.45834 26.5417 7.07344 26.5417 14C26.5417 20.9266 20.9266 26.5417 14 26.5417C7.07347 26.5417 1.45837 20.9266 1.45837 14ZM14 8.45834C14.4833 8.45834 14.875 8.85009 14.875 9.33334V13.125H18.6667C19.15 13.125 19.5417 13.5167 19.5417 14C19.5417 14.4832 19.15 14.875 18.6667 14.875H14.875V18.6667C14.875 19.1499 14.4833 19.5417 14 19.5417C13.5168 19.5417 13.125 19.1499 13.125 18.6667V14.875H9.33337C8.85012 14.875 8.45837 14.4832 8.45837 14C8.45837 13.5167 8.85012 13.125 9.33337 13.125H13.125V9.33334C13.125 8.85009 13.5168 8.45834 14 8.45834Z" fill="#857F7F"/>
</g>
</svg>
