<svg width="24" height="24" viewBox="0 0 24 24" fill="none" xmlns="http://www.w3.org/2000/svg">
<g id="sun" clip-path="url(#clip0_70_490)">
<path id="Vector " fill-rule="evenodd" clip-rule="evenodd" d="M12 -1.52588e-05C12.5523 -1.52588e-05 13 0.4477 13 0.999985V2.99998C13 3.55227 12.5523 3.99998 12 3.99998C11.4477 3.99998 11 3.55227 11 2.99998V0.999985C11 0.4477 11.4477 -1.52588e-05 12 -1.52588e-05ZM3.5129 3.51285C3.90343 3.12232 4.53659 3.12232 4.92711 3.51285L6.34711 4.93285C6.73764 5.32337 6.73764 5.95653 6.34711 6.34706C5.95659 6.73758 5.32343 6.73758 4.9329 6.34706L3.5129 4.92706C3.12238 4.53653 3.12238 3.90337 3.5129 3.51285ZM20.4871 3.51285C20.8776 3.90337 20.8776 4.53654 20.4871 4.92706L19.0671 6.34706C18.6766 6.73758 18.0434 6.73758 17.6529 6.34706C17.2624 5.95653 17.2624 5.32337 17.6529 4.93285L19.0729 3.51284C19.4634 3.12232 20.0966 3.12232 20.4871 3.51285ZM12 7.99998C9.79086 7.99998 8 9.79085 8 12C8 14.2091 9.79086 16 12 16C14.2091 16 16 14.2091 16 12C16 9.79085 14.2091 7.99998 12 7.99998ZM6 12C6 8.68628 8.68629 5.99998 12 5.99998C15.3137 5.99998 18 8.68628 18 12C18 15.3137 15.3137 18 12 18C8.68629 18 6 15.3137 6 12ZM0 12C0 11.4477 0.447715 11 1 11H3C3.55228 11 4 11.4477 4 12C4 12.5523 3.55228 13 3 13H1C0.447715 13 0 12.5523 0 12ZM20 12C20 11.4477 20.4477 11 21 11H23C23.5523 11 24 11.4477 24 12C24 12.5523 23.5523 13 23 13H21C20.4477 13 20 12.5523 20 12ZM6.34712 17.6529C6.73764 18.0435 6.73764 18.6766 6.34711 19.0671L4.92711 20.4871C4.53659 20.8777 3.90342 20.8777 3.5129 20.4871C3.12238 20.0966 3.12238 19.4634 3.5129 19.0729L4.9329 17.6529C5.32343 17.2624 5.95659 17.2624 6.34712 17.6529ZM17.6529 17.6529C18.0434 17.2624 18.6766 17.2624 19.0671 17.6529L20.4871 19.0729C20.8776 19.4634 20.8776 20.0966 20.4871 20.4871C20.0966 20.8777 19.4634 20.8777 19.0729 20.4871L17.6529 19.0671C17.2624 18.6766 17.2624 18.0435 17.6529 17.6529ZM12 20C12.5523 20 13 20.4477 13 21V23C13 23.5523 12.5523 24 12 24C11.4477 24 11 23.5523 11 23V21C11 20.4477 11.4477 20 12 20Z" fill="#FFCE56"/>
</g>
<defs>
<clipPath id="clip0_70_490">
<rect width="24" height="24" fill="white"/>
</clipPath>
</defs>
</svg>
